<?xml version="1.0" encoding="UTF-8" standalone="no"?>
<!DOCTYPE svg PUBLIC "-//W3C//DTD SVG 1.1//EN" "http://www.w3.org/Graphics/SVG/1.1/DTD/svg11.dtd">
<svg xmlns="http://www.w3.org/2000/svg" version="1.1" viewBox="0.00 0.00 500.00 500.00">
<g stroke-width="2.00" fill="none" stroke-linecap="butt">
<path stroke="#668294" vector-effect="non-scaling-stroke" d="
  M 482.67 159.69
  L 412.45 176.09
  Q 411.96 176.20 411.54 175.94
  L 407.52 173.45"
/>
<path stroke="#d3e3e1" vector-effect="non-scaling-stroke" d="
  M 407.52 173.45
  Q 396.70 151.24 380.11 133.39
  Q 352.33 103.51 314.98 88.42
  Q 291.32 78.85 263.91 76.63
  Q 208.24 72.12 159.96 99.20
  Q 113.22 125.43 88.96 173.48"
/>
<path stroke="#668294" vector-effect="non-scaling-stroke" d="
  M 88.96 173.48
  L 84.95 176.09
  A 1.04 1.01 -54.6 0 1 84.18 176.23
  L 17.88 160.74"
/>
<path stroke="#919ba1" vector-effect="non-scaling-stroke" d="
  M 407.52 173.45
  Q 402.61 172.57 399.49 173.29
  Q 379.78 177.81 360.01 182.03
  Q 356.71 182.74 355.30 184.79
  Q 354.56 185.87 353.36 185.35
  Q 316.91 169.51 275.83 151.17
  Q 256.44 142.52 236.45 147.66
  Q 218.68 152.24 196.80 158.77
  Q 190.92 160.53 185.98 165.69
  Q 184.69 167.04 183.00 167.64
  Q 162.44 174.94 140.80 184.17
  Q 140.30 184.38 139.86 184.07
  Q 137.31 182.26 135.48 181.85
  Q 116.17 177.56 99.24 173.58
  Q 94.43 172.45 88.96 173.48"
/>
<path stroke="#919ba1" vector-effect="non-scaling-stroke" d="
  M 486.76 170.96
  L 415.68 187.58
  Q 415.56 187.60 415.59 187.71
  L 427.81 231.86"
/>
<path stroke="#668294" vector-effect="non-scaling-stroke" d="
  M 427.81 231.86
  L 432.50 251.30
  A 0.39 0.39 0.0 0 0 432.95 251.59
  L 499.38 237.18"
/>
<path stroke="#668294" vector-effect="non-scaling-stroke" d="
  M 499.71 241.95
  L 434.01 256.60
  A 0.83 0.82 76.8 0 0 433.39 257.61
  L 434.02 260.01
  A 1.00 0.99 76.5 0 0 435.20 260.74
  L 500.00 246.50"
/>
<path stroke="#668294" vector-effect="non-scaling-stroke" d="
  M 500.00 252.42
  L 435.58 266.67
  Q 435.32 266.73 435.37 266.99
  L 436.09 270.50
  A 0.22 0.21 77.3 0 0 436.34 270.66
  L 499.75 256.77"
/>
<path stroke="#668294" vector-effect="non-scaling-stroke" d="
  M 499.42 263.06
  L 437.41 276.56
  Q 436.88 276.68 436.99 277.21
  L 437.65 280.32
  Q 437.76 280.86 438.30 280.74
  L 499.18 267.54"
/>
<path stroke="#668294" vector-effect="non-scaling-stroke" d="
  M 498.09 279.76
  L 421.31 296.82"
/>
<path stroke="#919ba1" vector-effect="non-scaling-stroke" d="
  M 421.31 296.82
  Q 404.89 300.46 388.62 304.21
  Q 386.18 304.77 382.43 303.45
  Q 381.95 303.28 381.50 303.53
  L 360.44 315.67
  A 1.06 1.05 -16.0 0 0 359.90 316.64
  C 360.62 337.83 337.61 350.17 320.01 338.81
  Q 319.42 338.42 319.46 339.13
  C 319.59 341.17 319.74 343.13 319.47 345.17
  C 317.67 358.68 306.67 368.20 293.17 367.63
  Q 285.19 367.29 277.79 361.46
  A 0.28 0.28 0.0 0 0 277.33 361.66
  C 276.89 370.26 271.77 378.18 264.29 382.20
  Q 252.30 388.62 238.91 382.47
  Q 238.44 382.25 238.03 382.55
  C 224.28 392.53 207.76 388.47 200.53 373.12
  C 199.91 371.79 199.61 370.15 199.15 368.75
  Q 198.97 368.21 198.47 368.49
  C 184.28 376.30 167.66 368.07 166.00 351.90
  Q 165.92 351.19 165.26 351.47
  Q 152.53 357.01 142.57 349.51
  Q 133.74 342.86 133.40 331.92
  A 0.33 0.33 0.0 0 0 132.92 331.64
  C 122.76 336.53 111.89 333.91 105.34 324.97
  Q 98.68 315.89 103.00 304.18
  A 0.36 0.36 0.0 0 0 102.75 303.70
  L 74.76 297.03"
/>
<path stroke="#668294" vector-effect="non-scaling-stroke" d="
  M 74.76 297.03
  L 3.08 281.17"
/>
<path stroke="#668294" vector-effect="non-scaling-stroke" d="
  M 1.90 268.80
  L 57.83 280.82
  Q 58.50 280.97 58.60 280.29
  L 59.04 277.28
  Q 59.13 276.67 58.52 276.54
  L 1.70 264.44"
/>
<path stroke="#668294" vector-effect="non-scaling-stroke" d="
  M 1.30 258.09
  L 59.65 270.57
  A 0.65 0.65 0.0 0 0 60.42 270.02
  L 60.81 267.24
  A 0.59 0.58 -80.5 0 0 60.35 266.59
  L 1.08 253.91"
/>
<path stroke="#668294" vector-effect="non-scaling-stroke" d="
  M 1.07 247.78
  L 61.61 260.94
  A 0.50 0.50 0.0 0 0 62.21 260.55
  L 62.83 257.29
  Q 62.96 256.61 62.28 256.47
  L 1.27 243.31"
/>
<path stroke="#668294" vector-effect="non-scaling-stroke" d="
  M 1.59 238.30
  L 63.49 251.54
  A 0.49 0.49 0.0 0 0 64.07 251.17
  L 68.53 231.99"
/>
<path stroke="#919ba1" vector-effect="non-scaling-stroke" d="
  M 68.53 231.99
  Q 73.68 210.20 80.96 188.43
  Q 81.12 187.95 80.63 187.84
  L 13.85 172.09"
/>
<path stroke="#668294" vector-effect="non-scaling-stroke" d="
  M 163.31 213.93
  Q 160.07 220.03 164.72 224.77
  C 169.33 229.47 176.06 229.99 182.24 228.42
  Q 190.15 226.41 198.67 224.01
  Q 204.00 222.51 207.86 217.63
  Q 212.31 212.02 216.82 206.42
  Q 218.16 204.76 220.28 204.76
  L 245.41 204.76
  A 3.92 3.91 -13.3 0 1 248.91 206.92
  C 251.65 212.43 253.75 218.78 257.41 223.51
  Q 260.11 226.99 266.27 231.43
  Q 286.48 245.98 307.41 261.08
  Q 309.82 262.82 312.30 264.07"
/>
<path stroke="#48637b" vector-effect="non-scaling-stroke" d="
  M 312.30 264.07
  L 318.38 268.89"
/>
<path stroke="#919ba1" vector-effect="non-scaling-stroke" d="
  M 318.38 268.89
  L 338.57 283.98"
/>
<path stroke="#668294" vector-effect="non-scaling-stroke" d="
  M 338.57 283.98
  L 346.09 289.76
  Q 346.50 290.07 346.93 289.80
  C 353.50 285.66 360.35 280.50 367.75 278.73
  Q 371.26 277.88 374.62 277.18
  A 0.50 0.50 0.0 0 0 375.01 276.60
  L 372.39 263.11"
/>
<path stroke="#919ba1" vector-effect="non-scaling-stroke" d="
  M 372.39 263.11
  Q 365.52 230.27 356.53 199.41
  Q 356.36 198.84 355.77 198.70
  Q 355.25 198.58 354.70 198.66
  Q 354.05 198.75 353.42 198.53
  Q 348.27 196.68 342.95 194.36
  Q 309.40 179.71 274.22 163.92
  Q 266.39 160.41 259.66 158.93
  C 251.43 157.13 243.39 158.23 234.77 160.56
  Q 221.49 164.13 208.12 167.90
  Q 201.09 169.89 200.37 170.15
  C 194.06 172.46 191.68 176.70 186.30 183.70
  Q 174.75 198.71 163.31 213.93"
/>
<path stroke="#d3e3e1" vector-effect="non-scaling-stroke" d="
  M 372.39 263.11
  Q 360.50 264.85 351.56 271.31
  Q 344.58 276.36 338.57 283.98"
/>
<path stroke="#b5c5c7" vector-effect="non-scaling-stroke" d="
  M 318.38 268.89
  L 324.85 266.27"
/>
<path stroke="#d3e3e1" vector-effect="non-scaling-stroke" d="
  M 324.85 266.27
  Q 334.21 263.10 340.25 259.23
  Q 350.07 252.94 356.97 243.84
  A 0.78 0.77 17.5 0 0 356.32 242.60
  Q 347.32 242.85 339.20 241.80
  Q 311.47 238.19 288.00 226.83
  C 276.25 221.14 267.79 213.52 262.29 202.59
  C 258.47 195.00 253.13 191.00 244.00 191.01
  Q 232.03 191.03 219.93 191.10
  C 213.44 191.14 209.27 191.79 205.73 197.62
  Q 202.32 203.23 197.81 208.71
  C 192.77 214.85 186.45 218.43 178.50 219.87
  Q 168.98 221.61 163.31 213.93"
/>
<path stroke="#8aacbb" vector-effect="non-scaling-stroke" d="
  M 324.85 266.27
  Q 318.87 263.98 312.30 264.07"
/>
<path stroke="#677f4d" vector-effect="non-scaling-stroke" d="
  M 366.97 192.15
  L 368.32 197.08"
/>
<path stroke="#919ba1" vector-effect="non-scaling-stroke" d="
  M 368.32 197.08
  L 368.78 198.51"
/>
<path stroke="#677f4d" vector-effect="non-scaling-stroke" d="
  M 368.78 198.51
  L 374.91 221.39"
/>
<path stroke="#2e7299" vector-effect="non-scaling-stroke" d="
  M 374.91 221.39
  L 385.87 269.59"
/>
<path stroke="#256291" vector-effect="non-scaling-stroke" d="
  M 385.87 269.59
  L 389.86 289.53
  Q 389.96 290.04 390.36 290.37
  Q 391.58 291.36 393.29 290.73
  Q 394.99 290.10 396.78 289.76
  Q 406.90 287.81 424.93 283.81
  Q 426.33 283.50 426.08 282.08
  L 422.44 261.11"
/>
<path stroke="#2e7299" vector-effect="non-scaling-stroke" d="
  M 422.44 261.11
  Q 417.41 236.53 410.61 213.04"
/>
<path stroke="#677f4d" vector-effect="non-scaling-stroke" d="
  M 410.61 213.04
  L 404.01 189.54"
/>
<path stroke="#919ba1" vector-effect="non-scaling-stroke" d="
  M 404.01 189.54
  Q 403.87 189.19 403.74 189.09"
/>
<path stroke="#677f4d" vector-effect="non-scaling-stroke" d="
  M 403.74 189.09
  Q 403.36 186.05 402.38 184.08"
/>
<path stroke="#919ba1" vector-effect="non-scaling-stroke" d="
  M 402.38 184.08
  Q 401.65 181.57 400.69 180.36
  Q 400.25 179.81 399.56 179.97
  L 365.99 187.73
  Q 365.50 187.85 365.67 188.32
  L 366.97 192.15"
/>
<path stroke="#d4e09a" vector-effect="non-scaling-stroke" d="
  M 402.38 184.08
  L 366.97 192.15"
/>
<path stroke="#d4e09a" vector-effect="non-scaling-stroke" d="
  M 403.74 189.09
  L 368.32 197.08"
/>
<path stroke="#d4e09a" vector-effect="non-scaling-stroke" d="
  M 404.01 189.54
  Q 403.95 189.66 403.92 189.81
  Q 403.88 190.06 403.64 190.12
  L 368.78 198.51"
/>
<path stroke="#71b892" vector-effect="non-scaling-stroke" d="
  M 410.61 213.04
  L 374.91 221.39"
/>
<path stroke="#2e9bd6" vector-effect="non-scaling-stroke" d="
  M 422.44 261.11
  L 385.87 269.59"
/>
<path stroke="#894350" vector-effect="non-scaling-stroke" d="
  M 94.54 184.14
  Q 93.22 186.54 92.91 189.00"
/>
<path stroke="#919ba1" vector-effect="non-scaling-stroke" d="
  M 92.91 189.00
  Q 92.27 189.58 92.33 190.65"
/>
<path stroke="#894350" vector-effect="non-scaling-stroke" d="
  M 92.33 190.65
  Q 92.28 190.86 92.05 191.16
  Q 91.87 191.40 91.79 191.65
  Q 85.50 211.84 80.28 233.24"
/>
<path stroke="#8f6850" vector-effect="non-scaling-stroke" d="
  M 80.28 233.24
  Q 75.45 252.73 71.69 273.39
  Q 70.74 278.61 70.19 283.26
  A 0.96 0.95 -86.8 0 0 71.14 284.33
  Q 72.85 284.31 74.43 284.99
  Q 76.04 285.69 77.74 285.85
  Q 80.39 286.10 82.52 286.67
  Q 85.52 287.47 88.25 288.00
  Q 91.34 288.59 94.41 289.57
  Q 99.64 291.26 105.07 291.17
  A 0.89 0.88 -84.2 0 0 105.92 290.47
  L 116.38 240.80"
/>
<path stroke="#894350" vector-effect="non-scaling-stroke" d="
  M 116.38 240.80
  L 127.53 197.97"
/>
<path stroke="#894350" vector-effect="non-scaling-stroke" d="
  M 127.53 197.97
  L 129.28 191.94"
/>
<path stroke="#919ba1" vector-effect="non-scaling-stroke" d="
  M 129.28 191.94
  L 130.57 188.34
  Q 130.75 187.84 130.22 187.72
  L 97.10 180.08
  Q 96.40 179.92 95.96 180.49
  Q 94.74 182.07 94.54 184.14"
/>
<path stroke="#f6a59d" vector-effect="non-scaling-stroke" d="
  M 129.28 191.94
  L 94.54 184.14"
/>
<path stroke="#f6a59d" vector-effect="non-scaling-stroke" d="
  M 127.53 197.97
  Q 127.49 197.80 127.46 197.67
  Q 127.39 197.45 127.17 197.40
  L 92.91 189.00"
/>
<path stroke="#f6a59d" vector-effect="non-scaling-stroke" d="
  M 127.53 197.97
  Q 126.81 198.27 125.50 197.99
  Q 108.89 194.43 92.33 190.65"
/>
<path stroke="#f3724c" vector-effect="non-scaling-stroke" d="
  M 116.38 240.80
  L 80.28 233.24"
/>
<path stroke="#668294" vector-effect="non-scaling-stroke" d="
  M 123.50 263.33
  L 121.97 270.48"
/>
<path stroke="#48637b" vector-effect="non-scaling-stroke" d="
  M 121.97 270.48
  L 120.07 280.71
  Q 119.95 281.37 120.60 281.19
  Q 126.80 279.51 132.74 280.35
  C 142.13 281.68 149.42 289.33 152.30 297.92
  Q 152.50 298.50 152.93 298.06
  L 158.82 292.02"
/>
<path stroke="#668294" vector-effect="non-scaling-stroke" d="
  M 158.82 292.02
  Q 165.14 286.47 174.44 285.45"
/>
<path stroke="#919ba1" vector-effect="non-scaling-stroke" d="
  M 174.44 285.45
  Q 182.93 285.41 189.18 290.58
  Q 197.13 297.17 197.38 308.39
  Q 197.39 308.95 197.93 308.87
  C 214.73 306.35 227.83 319.51 224.88 336.19
  Q 224.80 336.68 225.29 336.72
  Q 244.44 338.11 248.17 358.03"
/>
<path stroke="#668294" vector-effect="non-scaling-stroke" d="
  M 248.17 358.03
  Q 248.79 365.03 246.35 371.28
  Q 246.04 372.08 246.88 372.27
  Q 259.71 375.03 264.88 364.76
  C 266.59 361.36 267.43 353.99 264.69 350.50
  C 262.96 348.31 260.10 346.23 257.99 344.89"
/>
<path stroke="#919ba1" vector-effect="non-scaling-stroke" d="
  M 257.99 344.89
  Q 249.14 338.07 239.40 330.59
  Q 236.66 328.48 236.05 325.68"
/>
<path stroke="#668294" vector-effect="non-scaling-stroke" d="
  M 236.05 325.68
  Q 237.16 320.01 241.99 319.78
  Q 244.43 319.66 246.24 321.00
  Q 266.65 336.19 286.38 351.84
  Q 292.98 357.08 299.46 354.36
  Q 305.96 351.63 307.66 345.46
  Q 311.20 332.61 300.90 324.89"
/>
<path stroke="#919ba1" vector-effect="non-scaling-stroke" d="
  M 300.90 324.89
  Q 281.78 310.39 261.98 295.52
  Q 259.00 293.28 259.15 289.50"
/>
<path stroke="#668294" vector-effect="non-scaling-stroke" d="
  M 259.15 289.50
  Q 261.11 284.61 265.50 284.99
  Q 267.86 285.20 269.66 286.52
  Q 297.82 307.17 323.72 326.59
  Q 326.82 328.92 329.68 329.90
  C 339.14 333.14 348.19 326.42 348.20 316.50
  Q 348.22 306.47 340.69 301.00"
/>
<path stroke="#919ba1" vector-effect="non-scaling-stroke" d="
  M 340.69 301.00
  L 233.04 221.56"
/>
<path stroke="#668294" vector-effect="non-scaling-stroke" d="
  M 233.04 221.56
  L 225.96 216.50
  Q 225.50 216.17 225.12 216.59
  C 219.14 223.30 212.08 231.76 203.53 234.79
  Q 194.19 238.12 183.37 240.48
  Q 176.94 241.89 172.50 241.25
  Q 154.71 238.71 149.77 220.51"
/>
<path stroke="#919ba1" vector-effect="non-scaling-stroke" d="
  M 149.77 220.51
  Q 149.80 215.36 151.53 210.67
  Q 152.98 206.75 156.30 202.52
  Q 162.79 194.23 169.19 186.13
  Q 169.83 185.33 168.88 185.72
  Q 155.11 191.43 140.66 197.92
  C 139.84 198.28 139.36 199.05 139.12 199.87
  Q 130.10 231.46 123.50 263.33"
/>
<path stroke="#d3e3e1" vector-effect="non-scaling-stroke" d="
  M 149.77 220.51
  Q 146.65 235.52 156.71 244.32
  C 164.21 250.88 173.74 251.62 183.28 249.78
  Q 196.77 247.19 208.35 240.86
  Q 220.71 234.12 233.04 221.56"
/>
<path stroke="#d3e3e1" vector-effect="non-scaling-stroke" d="
  M 340.69 301.00
  C 340.07 307.51 339.76 312.84 332.89 315.31
  Q 325.53 317.95 319.36 313.42
  Q 293.28 294.22 266.02 274.20
  Q 262.76 271.80 259.64 269.45
  A 1.40 1.40 0.0 0 0 257.84 269.55
  Q 254.87 272.36 251.90 275.40
  C 245.64 281.80 254.35 287.19 259.15 289.50"
/>
<path stroke="#d3e3e1" vector-effect="non-scaling-stroke" d="
  M 300.90 324.89
  Q 301.68 334.92 295.51 338.24
  C 288.81 341.83 283.24 338.84 277.24 334.38
  Q 257.32 319.54 233.47 301.70
  Q 230.86 299.75 228.43 298.05
  C 224.51 295.32 217.09 304.69 214.85 307.15
  Q 213.80 308.29 215.02 309.24
  L 236.05 325.68"
/>
<path stroke="#d3e3e1" vector-effect="non-scaling-stroke" d="
  M 257.99 344.89
  Q 258.22 357.25 248.17 358.03"
/>
<path stroke="#d3e3e1" vector-effect="non-scaling-stroke" d="
  M 174.44 285.45
  Q 151.44 268.78 123.50 263.33"
/>
<path stroke="#8aacbb" vector-effect="non-scaling-stroke" d="
  M 158.82 292.02
  Q 150.76 284.11 141.67 277.57
  C 135.89 273.42 129.26 270.27 121.97 270.48"
/>
<path stroke="#668294" vector-effect="non-scaling-stroke" d="
  M 354.98 296.02
  C 361.58 292.20 368.25 287.84 375.81 286.02
  Q 376.65 285.82 376.50 284.97
  L 376.00 282.26
  Q 375.86 281.45 375.04 281.57
  C 365.70 282.95 358.51 287.73 350.95 293.02
  Q 350.70 293.19 350.94 293.37
  L 354.43 295.99
  Q 354.70 296.18 354.98 296.02"
/>
<path stroke="#668294" vector-effect="non-scaling-stroke" d="
  M 377.6696 290.4852
  A 9.88 1.04 -28.9 0 0 368.5174 294.3495
  A 9.88 1.04 -28.9 0 0 360.3704 300.0348
  A 9.88 1.04 -28.9 0 0 369.5226 296.1705
  A 9.88 1.04 -28.9 0 0 377.6696 290.4852"
/>
<path stroke="#668294" vector-effect="non-scaling-stroke" d="
  M 117.74 302.36
  Q 113.11 305.72 113.00 310.74
  C 112.78 320.50 124.24 325.71 130.93 318.58
  Q 136.32 312.85 141.73 306.96
  Q 142.96 305.63 143.40 303.96
  Q 143.53 303.46 143.21 303.05
  L 138.06 296.51"
/>
<path stroke="#919ba1" vector-effect="non-scaling-stroke" d="
  M 138.06 296.51
  Q 135.71 293.53 133.30 292.65
  Q 129.67 291.32 126.86 293.13
  Q 126.33 293.47 122.48 297.19
  Q 119.87 299.71 117.74 302.36"
/>
<path stroke="#d3e3e1" vector-effect="non-scaling-stroke" d="
  M 138.06 296.51
  C 138.00 298.83 138.40 301.65 137.30 303.68
  Q 136.61 304.96 135.56 306.09
  Q 132.11 309.80 128.33 313.52
  A 1.10 1.09 -57.7 0 1 127.19 313.78
  Q 118.91 310.97 117.74 302.36"
/>
<path stroke="#668294" vector-effect="non-scaling-stroke" d="
  M 149.39 319.41
  C 143.41 324.28 142.21 332.04 147.40 337.73
  C 151.36 342.08 158.50 342.65 162.44 338.43
  Q 172.76 327.35 183.47 316.22
  Q 185.82 313.77 186.02 312.26
  Q 187.18 303.45 180.10 299.05"
/>
<path stroke="#919ba1" vector-effect="non-scaling-stroke" d="
  M 180.10 299.05
  Q 172.95 295.27 167.79 300.54
  Q 158.55 309.99 149.39 319.41"
/>
<path stroke="#d3e3e1" vector-effect="non-scaling-stroke" d="
  M 180.10 299.05
  Q 179.96 300.77 180.45 302.44
  C 181.87 307.30 180.97 310.61 177.27 314.27
  Q 170.22 321.21 160.28 332.02
  Q 159.77 332.58 159.02 332.49
  C 155.44 332.06 152.00 328.57 150.55 325.46
  C 149.73 323.71 150.01 321.48 149.39 319.41"
/>
<path stroke="#668294" vector-effect="non-scaling-stroke" d="
  M 182.14 337.17
  Q 179.64 339.22 177.99 341.26
  Q 176.49 343.10 176.59 346.24
  Q 176.80 352.64 180.49 356.27
  C 185.02 360.73 191.38 360.09 195.55 355.55
  Q 203.01 347.42 210.59 339.85
  C 212.76 337.68 213.78 335.17 213.65 332.02
  Q 213.36 324.69 206.78 321.66"
/>
<path stroke="#919ba1" vector-effect="non-scaling-stroke" d="
  M 206.78 321.66
  Q 201.30 318.54 196.84 322.09
  Q 193.27 324.94 182.14 337.17"
/>
<path stroke="#d3e3e1" vector-effect="non-scaling-stroke" d="
  M 206.78 321.66
  C 208.17 326.17 210.55 330.09 206.98 334.60
  Q 203.23 339.36 192.17 350.35
  Q 191.83 350.68 191.38 350.54
  Q 182.19 347.62 182.14 337.17"
/>
<path stroke="#668294" vector-effect="non-scaling-stroke" d="
  M 213.75 355.47
  Q 208.90 359.18 210.29 365.28
  Q 211.56 370.84 216.24 373.98
  C 221.64 377.60 229.54 375.53 233.56 370.35
  Q 235.72 367.57 236.29 363.32
  Q 237.40 354.96 229.86 350.21"
/>
<path stroke="#919ba1" vector-effect="non-scaling-stroke" d="
  M 229.86 350.21
  Q 222.39 346.44 216.86 351.86
  Q 216.04 352.67 213.75 355.47"
/>
<path stroke="#d3e3e1" vector-effect="non-scaling-stroke" d="
  M 229.86 350.21
  Q 230.03 351.60 231.05 354.50
  C 233.32 360.99 227.09 368.65 219.92 365.58
  C 216.98 364.32 214.95 361.36 214.40 358.07
  Q 214.17 356.72 213.75 355.47"
/>
<path stroke="#d3e3e1" vector-effect="non-scaling-stroke" d="
  M 497.37 215.84
  L 427.81 231.86"
/>
<path stroke="#d3e3e1" vector-effect="non-scaling-stroke" d="
  M 68.53 231.99
  L 3.50 216.83"
/>
<path stroke="#71b892" vector-effect="non-scaling-stroke" d="
  M 410.3314 221.8869
  A 0.33 0.33 0.0 0 0 409.9373 221.6368
  L 379.0984 228.5301
  A 0.33 0.33 0.0 0 0 378.8483 228.9242
  L 378.9486 229.3731
  A 0.33 0.33 0.0 0 0 379.3427 229.6232
  L 410.1816 222.7299
  A 0.33 0.33 0.0 0 0 410.4317 222.3358
  L 410.3314 221.8869"
/>
<path stroke="#d3e3e1" vector-effect="non-scaling-stroke" d="
  M 74.76 297.03
  Q 88.37 345.50 124.28 379.07
  C 170.02 421.82 237.26 437.04 296.89 420.86
  Q 352.97 405.66 390.10 359.91
  C 400.93 346.57 409.57 330.79 415.94 314.66
  Q 419.02 306.86 420.79 299.71
  Q 420.93 299.14 421.36 298.37
  Q 422.05 297.11 421.31 296.82"
/>
</g>
<path fill="#a7cad4" d="
  M 482.67 159.69
  L 412.45 176.09
  Q 411.96 176.20 411.54 175.94
  L 407.52 173.45
  Q 396.70 151.24 380.11 133.39
  Q 352.33 103.51 314.98 88.42
  Q 291.32 78.85 263.91 76.63
  Q 208.24 72.12 159.96 99.20
  Q 113.22 125.43 88.96 173.48
  L 84.95 176.09
  A 1.04 1.01 -54.6 0 1 84.18 176.23
  L 17.88 160.74
  Q 44.11 93.88 99.80 51.81
  Q 163.91 3.40 247.60 1.04
  C 255.26 0.82 263.16 1.42 271.16 2.08
  Q 325.17 6.53 372.85 33.37
  Q 427.26 63.99 460.93 116.80
  Q 473.82 137.01 482.67 159.69
  Z"
/>
<path fill="#fefced" d="
  M 407.52 173.45
  Q 402.61 172.57 399.49 173.29
  Q 379.78 177.81 360.01 182.03
  Q 356.71 182.74 355.30 184.79
  Q 354.56 185.87 353.36 185.35
  Q 316.91 169.51 275.83 151.17
  Q 256.44 142.52 236.45 147.66
  Q 218.68 152.24 196.80 158.77
  Q 190.92 160.53 185.98 165.69
  Q 184.69 167.04 183.00 167.64
  Q 162.44 174.94 140.80 184.17
  Q 140.30 184.38 139.86 184.07
  Q 137.31 182.26 135.48 181.85
  Q 116.17 177.56 99.24 173.58
  Q 94.43 172.45 88.96 173.48
  Q 113.22 125.43 159.96 99.20
  Q 208.24 72.12 263.91 76.63
  Q 291.32 78.85 314.98 88.42
  Q 352.33 103.51 380.11 133.39
  Q 396.70 151.24 407.52 173.45
  Z"
/>
<path fill="#243954" d="
  M 407.52 173.45
  L 411.54 175.94
  Q 411.96 176.20 412.45 176.09
  L 482.67 159.69
  L 486.76 170.96
  L 415.68 187.58
  Q 415.56 187.60 415.59 187.71
  L 427.81 231.86
  L 432.50 251.30
  A 0.39 0.39 0.0 0 0 432.95 251.59
  L 499.38 237.18
  L 499.71 241.95
  L 434.01 256.60
  A 0.83 0.82 76.8 0 0 433.39 257.61
  L 434.02 260.01
  A 1.00 0.99 76.5 0 0 435.20 260.74
  L 500.00 246.50
  L 500.00 252.42
  L 435.58 266.67
  Q 435.32 266.73 435.37 266.99
  L 436.09 270.50
  A 0.22 0.21 77.3 0 0 436.34 270.66
  L 499.75 256.77
  L 499.42 263.06
  L 437.41 276.56
  Q 436.88 276.68 436.99 277.21
  L 437.65 280.32
  Q 437.76 280.86 438.30 280.74
  L 499.18 267.54
  L 498.09 279.76
  L 421.31 296.82
  Q 404.89 300.46 388.62 304.21
  Q 386.18 304.77 382.43 303.45
  Q 381.95 303.28 381.50 303.53
  L 360.44 315.67
  A 1.06 1.05 -16.0 0 0 359.90 316.64
  C 360.62 337.83 337.61 350.17 320.01 338.81
  Q 319.42 338.42 319.46 339.13
  C 319.59 341.17 319.74 343.13 319.47 345.17
  C 317.67 358.68 306.67 368.20 293.17 367.63
  Q 285.19 367.29 277.79 361.46
  A 0.28 0.28 0.0 0 0 277.33 361.66
  C 276.89 370.26 271.77 378.18 264.29 382.20
  Q 252.30 388.62 238.91 382.47
  Q 238.44 382.25 238.03 382.55
  C 224.28 392.53 207.76 388.47 200.53 373.12
  C 199.91 371.79 199.61 370.15 199.15 368.75
  Q 198.97 368.21 198.47 368.49
  C 184.28 376.30 167.66 368.07 166.00 351.90
  Q 165.92 351.19 165.26 351.47
  Q 152.53 357.01 142.57 349.51
  Q 133.74 342.86 133.40 331.92
  A 0.33 0.33 0.0 0 0 132.92 331.64
  C 122.76 336.53 111.89 333.91 105.34 324.97
  Q 98.68 315.89 103.00 304.18
  A 0.36 0.36 0.0 0 0 102.75 303.70
  L 74.76 297.03
  L 3.08 281.17
  L 1.90 268.80
  L 57.83 280.82
  Q 58.50 280.97 58.60 280.29
  L 59.04 277.28
  Q 59.13 276.67 58.52 276.54
  L 1.70 264.44
  L 1.30 258.09
  L 59.65 270.57
  A 0.65 0.65 0.0 0 0 60.42 270.02
  L 60.81 267.24
  A 0.59 0.58 -80.5 0 0 60.35 266.59
  L 1.08 253.91
  L 1.07 247.78
  L 61.61 260.94
  A 0.50 0.50 0.0 0 0 62.21 260.55
  L 62.83 257.29
  Q 62.96 256.61 62.28 256.47
  L 1.27 243.31
  L 1.59 238.30
  L 63.49 251.54
  A 0.49 0.49 0.0 0 0 64.07 251.17
  L 68.53 231.99
  Q 73.68 210.20 80.96 188.43
  Q 81.12 187.95 80.63 187.84
  L 13.85 172.09
  L 17.88 160.74
  L 84.18 176.23
  A 1.04 1.01 -54.6 0 0 84.95 176.09
  L 88.96 173.48
  Q 94.43 172.45 99.24 173.58
  Q 116.17 177.56 135.48 181.85
  Q 137.31 182.26 139.86 184.07
  Q 140.30 184.38 140.80 184.17
  Q 162.44 174.94 183.00 167.64
  Q 184.69 167.04 185.98 165.69
  Q 190.92 160.53 196.80 158.77
  Q 218.68 152.24 236.45 147.66
  Q 256.44 142.52 275.83 151.17
  Q 316.91 169.51 353.36 185.35
  Q 354.56 185.87 355.30 184.79
  Q 356.71 182.74 360.01 182.03
  Q 379.78 177.81 399.49 173.29
  Q 402.61 172.57 407.52 173.45
  Z
  M 163.31 213.93
  Q 160.07 220.03 164.72 224.77
  C 169.33 229.47 176.06 229.99 182.24 228.42
  Q 190.15 226.41 198.67 224.01
  Q 204.00 222.51 207.86 217.63
  Q 212.31 212.02 216.82 206.42
  Q 218.16 204.76 220.28 204.76
  L 245.41 204.76
  A 3.92 3.91 -13.3 0 1 248.91 206.92
  C 251.65 212.43 253.75 218.78 257.41 223.51
  Q 260.11 226.99 266.27 231.43
  Q 286.48 245.98 307.41 261.08
  Q 309.82 262.82 312.30 264.07
  L 318.38 268.89
  L 338.57 283.98
  L 346.09 289.76
  Q 346.50 290.07 346.93 289.80
  C 353.50 285.66 360.35 280.50 367.75 278.73
  Q 371.26 277.88 374.62 277.18
  A 0.50 0.50 0.0 0 0 375.01 276.60
  L 372.39 263.11
  Q 365.52 230.27 356.53 199.41
  Q 356.36 198.84 355.77 198.70
  Q 355.25 198.58 354.70 198.66
  Q 354.05 198.75 353.42 198.53
  Q 348.27 196.68 342.95 194.36
  Q 309.40 179.71 274.22 163.92
  Q 266.39 160.41 259.66 158.93
  C 251.43 157.13 243.39 158.23 234.77 160.56
  Q 221.49 164.13 208.12 167.90
  Q 201.09 169.89 200.37 170.15
  C 194.06 172.46 191.68 176.70 186.30 183.70
  Q 174.75 198.71 163.31 213.93
  Z
  M 366.97 192.15
  L 368.32 197.08
  L 368.78 198.51
  L 374.91 221.39
  L 385.87 269.59
  L 389.86 289.53
  Q 389.96 290.04 390.36 290.37
  Q 391.58 291.36 393.29 290.73
  Q 394.99 290.10 396.78 289.76
  Q 406.90 287.81 424.93 283.81
  Q 426.33 283.50 426.08 282.08
  L 422.44 261.11
  Q 417.41 236.53 410.61 213.04
  L 404.01 189.54
  Q 403.87 189.19 403.74 189.09
  Q 403.36 186.05 402.38 184.08
  Q 401.65 181.57 400.69 180.36
  Q 400.25 179.81 399.56 179.97
  L 365.99 187.73
  Q 365.50 187.85 365.67 188.32
  L 366.97 192.15
  Z
  M 94.54 184.14
  Q 93.22 186.54 92.91 189.00
  Q 92.27 189.58 92.33 190.65
  Q 92.28 190.86 92.05 191.16
  Q 91.87 191.40 91.79 191.65
  Q 85.50 211.84 80.28 233.24
  Q 75.45 252.73 71.69 273.39
  Q 70.74 278.61 70.19 283.26
  A 0.96 0.95 -86.8 0 0 71.14 284.33
  Q 72.85 284.31 74.43 284.99
  Q 76.04 285.69 77.74 285.85
  Q 80.39 286.10 82.52 286.67
  Q 85.52 287.47 88.25 288.00
  Q 91.34 288.59 94.41 289.57
  Q 99.64 291.26 105.07 291.17
  A 0.89 0.88 -84.2 0 0 105.92 290.47
  L 116.38 240.80
  L 127.53 197.97
  L 129.28 191.94
  L 130.57 188.34
  Q 130.75 187.84 130.22 187.72
  L 97.10 180.08
  Q 96.40 179.92 95.96 180.49
  Q 94.74 182.07 94.54 184.14
  Z
  M 123.50 263.33
  L 121.97 270.48
  L 120.07 280.71
  Q 119.95 281.37 120.60 281.19
  Q 126.80 279.51 132.74 280.35
  C 142.13 281.68 149.42 289.33 152.30 297.92
  Q 152.50 298.50 152.93 298.06
  L 158.82 292.02
  Q 165.14 286.47 174.44 285.45
  Q 182.93 285.41 189.18 290.58
  Q 197.13 297.17 197.38 308.39
  Q 197.39 308.95 197.93 308.87
  C 214.73 306.35 227.83 319.51 224.88 336.19
  Q 224.80 336.68 225.29 336.72
  Q 244.44 338.11 248.17 358.03
  Q 248.79 365.03 246.35 371.28
  Q 246.04 372.08 246.88 372.27
  Q 259.71 375.03 264.88 364.76
  C 266.59 361.36 267.43 353.99 264.69 350.50
  C 262.96 348.31 260.10 346.23 257.99 344.89
  Q 249.14 338.07 239.40 330.59
  Q 236.66 328.48 236.05 325.68
  Q 237.16 320.01 241.99 319.78
  Q 244.43 319.66 246.24 321.00
  Q 266.65 336.19 286.38 351.84
  Q 292.98 357.08 299.46 354.36
  Q 305.96 351.63 307.66 345.46
  Q 311.20 332.61 300.90 324.89
  Q 281.78 310.39 261.98 295.52
  Q 259.00 293.28 259.15 289.50
  Q 261.11 284.61 265.50 284.99
  Q 267.86 285.20 269.66 286.52
  Q 297.82 307.17 323.72 326.59
  Q 326.82 328.92 329.68 329.90
  C 339.14 333.14 348.19 326.42 348.20 316.50
  Q 348.22 306.47 340.69 301.00
  L 233.04 221.56
  L 225.96 216.50
  Q 225.50 216.17 225.12 216.59
  C 219.14 223.30 212.08 231.76 203.53 234.79
  Q 194.19 238.12 183.37 240.48
  Q 176.94 241.89 172.50 241.25
  Q 154.71 238.71 149.77 220.51
  Q 149.80 215.36 151.53 210.67
  Q 152.98 206.75 156.30 202.52
  Q 162.79 194.23 169.19 186.13
  Q 169.83 185.33 168.88 185.72
  Q 155.11 191.43 140.66 197.92
  C 139.84 198.28 139.36 199.05 139.12 199.87
  Q 130.10 231.46 123.50 263.33
  Z
  M 354.98 296.02
  C 361.58 292.20 368.25 287.84 375.81 286.02
  Q 376.65 285.82 376.50 284.97
  L 376.00 282.26
  Q 375.86 281.45 375.04 281.57
  C 365.70 282.95 358.51 287.73 350.95 293.02
  Q 350.70 293.19 350.94 293.37
  L 354.43 295.99
  Q 354.70 296.18 354.98 296.02
  Z
  M 377.6696 290.4852
  A 9.88 1.04 -28.9 0 0 368.5174 294.3495
  A 9.88 1.04 -28.9 0 0 360.3704 300.0348
  A 9.88 1.04 -28.9 0 0 369.5226 296.1705
  A 9.88 1.04 -28.9 0 0 377.6696 290.4852
  Z
  M 117.74 302.36
  Q 113.11 305.72 113.00 310.74
  C 112.78 320.50 124.24 325.71 130.93 318.58
  Q 136.32 312.85 141.73 306.96
  Q 142.96 305.63 143.40 303.96
  Q 143.53 303.46 143.21 303.05
  L 138.06 296.51
  Q 135.71 293.53 133.30 292.65
  Q 129.67 291.32 126.86 293.13
  Q 126.33 293.47 122.48 297.19
  Q 119.87 299.71 117.74 302.36
  Z
  M 149.39 319.41
  C 143.41 324.28 142.21 332.04 147.40 337.73
  C 151.36 342.08 158.50 342.65 162.44 338.43
  Q 172.76 327.35 183.47 316.22
  Q 185.82 313.77 186.02 312.26
  Q 187.18 303.45 180.10 299.05
  Q 172.95 295.27 167.79 300.54
  Q 158.55 309.99 149.39 319.41
  Z
  M 182.14 337.17
  Q 179.64 339.22 177.99 341.26
  Q 176.49 343.10 176.59 346.24
  Q 176.80 352.64 180.49 356.27
  C 185.02 360.73 191.38 360.09 195.55 355.55
  Q 203.01 347.42 210.59 339.85
  C 212.76 337.68 213.78 335.17 213.65 332.02
  Q 213.36 324.69 206.78 321.66
  Q 201.30 318.54 196.84 322.09
  Q 193.27 324.94 182.14 337.17
  Z
  M 213.75 355.47
  Q 208.90 359.18 210.29 365.28
  Q 211.56 370.84 216.24 373.98
  C 221.64 377.60 229.54 375.53 233.56 370.35
  Q 235.72 367.57 236.29 363.32
  Q 237.40 354.96 229.86 350.21
  Q 222.39 346.44 216.86 351.86
  Q 216.04 352.67 213.75 355.47
  Z"
/>
<path fill="#fefced" d="
  M 372.39 263.11
  Q 360.50 264.85 351.56 271.31
  Q 344.58 276.36 338.57 283.98
  L 318.38 268.89
  L 324.85 266.27
  Q 334.21 263.10 340.25 259.23
  Q 350.07 252.94 356.97 243.84
  A 0.78 0.77 17.5 0 0 356.32 242.60
  Q 347.32 242.85 339.20 241.80
  Q 311.47 238.19 288.00 226.83
  C 276.25 221.14 267.79 213.52 262.29 202.59
  C 258.47 195.00 253.13 191.00 244.00 191.01
  Q 232.03 191.03 219.93 191.10
  C 213.44 191.14 209.27 191.79 205.73 197.62
  Q 202.32 203.23 197.81 208.71
  C 192.77 214.85 186.45 218.43 178.50 219.87
  Q 168.98 221.61 163.31 213.93
  Q 174.75 198.71 186.30 183.70
  C 191.68 176.70 194.06 172.46 200.37 170.15
  Q 201.09 169.89 208.12 167.90
  Q 221.49 164.13 234.77 160.56
  C 243.39 158.23 251.43 157.13 259.66 158.93
  Q 266.39 160.41 274.22 163.92
  Q 309.40 179.71 342.95 194.36
  Q 348.27 196.68 353.42 198.53
  Q 354.05 198.75 354.70 198.66
  Q 355.25 198.58 355.77 198.70
  Q 356.36 198.84 356.53 199.41
  Q 365.52 230.27 372.39 263.11
  Z"
/>
<path fill="#fefced" d="
  M 486.76 170.96
  Q 494.16 192.83 497.37 215.84
  L 427.81 231.86
  L 415.59 187.71
  Q 415.56 187.60 415.68 187.58
  L 486.76 170.96
  Z"
/>
<path fill="#fefced" d="
  M 13.85 172.09
  L 80.63 187.84
  Q 81.12 187.95 80.96 188.43
  Q 73.68 210.20 68.53 231.99
  L 3.50 216.83
  Q 6.50 194.41 13.85 172.09
  Z"
/>
<path fill="#fefced" d="
  M 402.38 184.08
  L 366.97 192.15
  L 365.67 188.32
  Q 365.50 187.85 365.99 187.73
  L 399.56 179.97
  Q 400.25 179.81 400.69 180.36
  Q 401.65 181.57 402.38 184.08
  Z"
/>
<path fill="#fefced" d="
  M 129.28 191.94
  L 94.54 184.14
  Q 94.74 182.07 95.96 180.49
  Q 96.40 179.92 97.10 180.08
  L 130.22 187.72
  Q 130.75 187.84 130.57 188.34
  L 129.28 191.94
  Z"
/>
<path fill="#aac446" d="
  M 402.38 184.08
  Q 403.36 186.05 403.74 189.09
  L 368.32 197.08
  L 366.97 192.15
  L 402.38 184.08
  Z"
/>
<path fill="#ed4d4c" d="
  M 94.54 184.14
  L 129.28 191.94
  L 127.53 197.97
  Q 127.49 197.80 127.46 197.67
  Q 127.39 197.45 127.17 197.40
  L 92.91 189.00
  Q 93.22 186.54 94.54 184.14
  Z"
/>
<path fill="#fefced" d="
  M 149.77 220.51
  Q 146.65 235.52 156.71 244.32
  C 164.21 250.88 173.74 251.62 183.28 249.78
  Q 196.77 247.19 208.35 240.86
  Q 220.71 234.12 233.04 221.56
  L 340.69 301.00
  C 340.07 307.51 339.76 312.84 332.89 315.31
  Q 325.53 317.95 319.36 313.42
  Q 293.28 294.22 266.02 274.20
  Q 262.76 271.80 259.64 269.45
  A 1.40 1.40 0.0 0 0 257.84 269.55
  Q 254.87 272.36 251.90 275.40
  C 245.64 281.80 254.35 287.19 259.15 289.50
  Q 259.00 293.28 261.98 295.52
  Q 281.78 310.39 300.90 324.89
  Q 301.68 334.92 295.51 338.24
  C 288.81 341.83 283.24 338.84 277.24 334.38
  Q 257.32 319.54 233.47 301.70
  Q 230.86 299.75 228.43 298.05
  C 224.51 295.32 217.09 304.69 214.85 307.15
  Q 213.80 308.29 215.02 309.24
  L 236.05 325.68
  Q 236.66 328.48 239.40 330.59
  Q 249.14 338.07 257.99 344.89
  Q 258.22 357.25 248.17 358.03
  Q 244.44 338.11 225.29 336.72
  Q 224.80 336.68 224.88 336.19
  C 227.83 319.51 214.73 306.35 197.93 308.87
  Q 197.39 308.95 197.38 308.39
  Q 197.13 297.17 189.18 290.58
  Q 182.93 285.41 174.44 285.45
  Q 151.44 268.78 123.50 263.33
  Q 130.10 231.46 139.12 199.87
  C 139.36 199.05 139.84 198.28 140.66 197.92
  Q 155.11 191.43 168.88 185.72
  Q 169.83 185.33 169.19 186.13
  Q 162.79 194.23 156.30 202.52
  Q 152.98 206.75 151.53 210.67
  Q 149.80 215.36 149.77 220.51
  Z"
/>
<path fill="#fefced" d="
  M 92.91 189.00
  L 127.17 197.40
  Q 127.39 197.45 127.46 197.67
  Q 127.49 197.80 127.53 197.97
  Q 126.81 198.27 125.50 197.99
  Q 108.89 194.43 92.33 190.65
  Q 92.27 189.58 92.91 189.00
  Z"
/>
<path fill="#fefced" d="
  M 403.74 189.09
  Q 403.87 189.19 404.01 189.54
  Q 403.95 189.66 403.92 189.81
  Q 403.88 190.06 403.64 190.12
  L 368.78 198.51
  L 368.32 197.08
  L 403.74 189.09
  Z"
/>
<path fill="#aac446" d="
  M 404.01 189.54
  L 410.61 213.04
  L 374.91 221.39
  L 368.78 198.51
  L 403.64 190.12
  Q 403.88 190.06 403.92 189.81
  Q 403.95 189.66 404.01 189.54
  Z"
/>
<path fill="#ed4d4c" d="
  M 92.33 190.65
  Q 108.89 194.43 125.50 197.99
  Q 126.81 198.27 127.53 197.97
  L 116.38 240.80
  L 80.28 233.24
  Q 85.50 211.84 91.79 191.65
  Q 91.87 191.40 92.05 191.16
  Q 92.28 190.86 92.33 190.65
  Z"
/>
<path fill="#a7cad4" d="
  M 324.85 266.27
  Q 318.87 263.98 312.30 264.07
  Q 309.82 262.82 307.41 261.08
  Q 286.48 245.98 266.27 231.43
  Q 260.11 226.99 257.41 223.51
  C 253.75 218.78 251.65 212.43 248.91 206.92
  A 3.92 3.91 -13.3 0 0 245.41 204.76
  L 220.28 204.76
  Q 218.16 204.76 216.82 206.42
  Q 212.31 212.02 207.86 217.63
  Q 204.00 222.51 198.67 224.01
  Q 190.15 226.41 182.24 228.42
  C 176.06 229.99 169.33 229.47 164.72 224.77
  Q 160.07 220.03 163.31 213.93
  Q 168.98 221.61 178.50 219.87
  C 186.45 218.43 192.77 214.85 197.81 208.71
  Q 202.32 203.23 205.73 197.62
  C 209.27 191.79 213.44 191.14 219.93 191.10
  Q 232.03 191.03 244.00 191.01
  C 253.13 191.00 258.47 195.00 262.29 202.59
  C 267.79 213.52 276.25 221.14 288.00 226.83
  Q 311.47 238.19 339.20 241.80
  Q 347.32 242.85 356.32 242.60
  A 0.78 0.77 17.5 0 1 356.97 243.84
  Q 350.07 252.94 340.25 259.23
  Q 334.21 263.10 324.85 266.27
  Z"
/>
<path fill="#37abde" d="
  M 410.61 213.04
  Q 417.41 236.53 422.44 261.11
  L 385.87 269.59
  L 374.91 221.39
  L 410.61 213.04
  Z
  M 410.3314 221.8869
  A 0.33 0.33 0.0 0 0 409.9373 221.6368
  L 379.0984 228.5301
  A 0.33 0.33 0.0 0 0 378.8483 228.9242
  L 378.9486 229.3731
  A 0.33 0.33 0.0 0 0 379.3427 229.6232
  L 410.1816 222.7299
  A 0.33 0.33 0.0 0 0 410.4317 222.3358
  L 410.3314 221.8869
  Z"
/>
<path fill="#a7cad4" d="
  M 497.37 215.84
  L 499.38 237.18
  L 432.95 251.59
  A 0.39 0.39 0.0 0 1 432.50 251.30
  L 427.81 231.86
  L 497.37 215.84
  Z"
/>
<path fill="#a7cad4" d="
  M 233.04 221.56
  Q 220.71 234.12 208.35 240.86
  Q 196.77 247.19 183.28 249.78
  C 173.74 251.62 164.21 250.88 156.71 244.32
  Q 146.65 235.52 149.77 220.51
  Q 154.71 238.71 172.50 241.25
  Q 176.94 241.89 183.37 240.48
  Q 194.19 238.12 203.53 234.79
  C 212.08 231.76 219.14 223.30 225.12 216.59
  Q 225.50 216.17 225.96 216.50
  L 233.04 221.56
  Z"
/>
<path fill="#a7cad4" d="
  M 3.50 216.83
  L 68.53 231.99
  L 64.07 251.17
  A 0.49 0.49 0.0 0 1 63.49 251.54
  L 1.59 238.30
  L 3.50 216.83
  Z"
/>
<rect fill="#aac446" x="-16.13" y="-0.56" transform="translate(394.64,225.63) rotate(-12.6)" width="32.26" height="1.12" rx="0.33"/>
<path fill="#f9964b" d="
  M 80.28 233.24
  L 116.38 240.80
  L 105.92 290.47
  A 0.89 0.88 -84.2 0 1 105.07 291.17
  Q 99.64 291.26 94.41 289.57
  Q 91.34 288.59 88.25 288.00
  Q 85.52 287.47 82.52 286.67
  Q 80.39 286.10 77.74 285.85
  Q 76.04 285.69 74.43 284.99
  Q 72.85 284.31 71.14 284.33
  A 0.96 0.95 -86.8 0 1 70.19 283.26
  Q 70.74 278.61 71.69 273.39
  Q 75.45 252.73 80.28 233.24
  Z"
/>
<path fill="#a7cad4" d="
  M 499.71 241.95
  L 500.00 244.88
  L 500.00 246.50
  L 435.20 260.74
  A 1.00 0.99 76.5 0 1 434.02 260.01
  L 433.39 257.61
  A 0.83 0.82 76.8 0 1 434.01 256.60
  L 499.71 241.95
  Z"
/>
<path fill="#a7cad4" d="
  M 1.27 243.31
  L 62.28 256.47
  Q 62.96 256.61 62.83 257.29
  L 62.21 260.55
  A 0.50 0.50 0.0 0 1 61.61 260.94
  L 1.07 247.78
  L 1.27 243.31
  Z"
/>
<path fill="#a7cad4" d="
  M 500.00 252.42
  L 500.00 256.50
  Q 499.65 256.45 499.75 256.77
  L 436.34 270.66
  A 0.22 0.21 77.3 0 1 436.09 270.50
  L 435.37 266.99
  Q 435.32 266.73 435.58 266.67
  L 500.00 252.42
  Z"
/>
<path fill="#a7cad4" d="
  M 1.08 253.91
  L 60.35 266.59
  A 0.59 0.58 -80.5 0 1 60.81 267.24
  L 60.42 270.02
  A 0.65 0.65 0.0 0 1 59.65 270.57
  L 1.30 258.09
  L 1.08 253.91
  Z"
/>
<path fill="#258bcd" d="
  M 422.44 261.11
  L 426.08 282.08
  Q 426.33 283.50 424.93 283.81
  Q 406.90 287.81 396.78 289.76
  Q 394.99 290.10 393.29 290.73
  Q 391.58 291.36 390.36 290.37
  Q 389.96 290.04 389.86 289.53
  L 385.87 269.59
  L 422.44 261.11
  Z"
/>
<path fill="#a7cad4" d="
  M 372.39 263.11
  L 375.01 276.60
  A 0.50 0.50 0.0 0 1 374.62 277.18
  Q 371.26 277.88 367.75 278.73
  C 360.35 280.50 353.50 285.66 346.93 289.80
  Q 346.50 290.07 346.09 289.76
  L 338.57 283.98
  Q 344.58 276.36 351.56 271.31
  Q 360.50 264.85 372.39 263.11
  Z"
/>
<path fill="#a7cad4" d="
  M 499.42 263.06
  L 499.18 267.54
  L 438.30 280.74
  Q 437.76 280.86 437.65 280.32
  L 436.99 277.21
  Q 436.88 276.68 437.41 276.56
  L 499.42 263.06
  Z"
/>
<path fill="#a7cad4" d="
  M 123.50 263.33
  Q 151.44 268.78 174.44 285.45
  Q 165.14 286.47 158.82 292.02
  Q 150.76 284.11 141.67 277.57
  C 135.89 273.42 129.26 270.27 121.97 270.48
  L 123.50 263.33
  Z"
/>
<path fill="#6c8da1" d="
  M 312.30 264.07
  Q 318.87 263.98 324.85 266.27
  L 318.38 268.89
  L 312.30 264.07
  Z"
/>
<path fill="#a7cad4" d="
  M 1.70 264.44
  L 58.52 276.54
  Q 59.13 276.67 59.04 277.28
  L 58.60 280.29
  Q 58.50 280.97 57.83 280.82
  L 1.90 268.80
  L 1.70 264.44
  Z"
/>
<path fill="#a7cad4" d="
  M 340.69 301.00
  Q 348.22 306.47 348.20 316.50
  C 348.19 326.42 339.14 333.14 329.68 329.90
  Q 326.82 328.92 323.72 326.59
  Q 297.82 307.17 269.66 286.52
  Q 267.86 285.20 265.50 284.99
  Q 261.11 284.61 259.15 289.50
  C 254.35 287.19 245.64 281.80 251.90 275.40
  Q 254.87 272.36 257.84 269.55
  A 1.40 1.40 0.0 0 1 259.64 269.45
  Q 262.76 271.80 266.02 274.20
  Q 293.28 294.22 319.36 313.42
  Q 325.53 317.95 332.89 315.31
  C 339.76 312.84 340.07 307.51 340.69 301.00
  Z"
/>
<path fill="#6c8da1" d="
  M 121.97 270.48
  C 129.26 270.27 135.89 273.42 141.67 277.57
  Q 150.76 284.11 158.82 292.02
  L 152.93 298.06
  Q 152.50 298.50 152.30 297.92
  C 149.42 289.33 142.13 281.68 132.74 280.35
  Q 126.80 279.51 120.60 281.19
  Q 119.95 281.37 120.07 280.71
  L 121.97 270.48
  Z"
/>
<path fill="#a7cad4" d="
  M 498.09 279.76
  Q 492.67 324.86 472.66 363.67
  Q 440.02 426.98 380.03 463.54
  Q 334.02 491.59 279.59 498.13
  Q 275.40 498.63 267.86 499.13
  Q 261.99 499.51 256.12 500.00
  L 244.75 500.00
  Q 239.76 499.50 234.77 499.23
  Q 229.36 498.93 224.50 498.41
  Q 154.13 490.75 98.49 448.03
  Q 54.69 414.41 29.18 365.27
  Q 8.65 325.74 3.08 281.17
  L 74.76 297.03
  Q 88.37 345.50 124.28 379.07
  C 170.02 421.82 237.26 437.04 296.89 420.86
  Q 352.97 405.66 390.10 359.91
  C 400.93 346.57 409.57 330.79 415.94 314.66
  Q 419.02 306.86 420.79 299.71
  Q 420.93 299.14 421.36 298.37
  Q 422.05 297.11 421.31 296.82
  L 498.09 279.76
  Z"
/>
<path fill="#a7cad4" d="
  M 375.81 286.02
  C 368.25 287.84 361.58 292.20 354.98 296.02
  Q 354.70 296.18 354.43 295.99
  L 350.94 293.37
  Q 350.70 293.19 350.95 293.02
  C 358.51 287.73 365.70 282.95 375.04 281.57
  Q 375.86 281.45 376.00 282.26
  L 376.50 284.97
  Q 376.65 285.82 375.81 286.02
  Z"
/>
<ellipse fill="#a7cad4" cx="0.00" cy="0.00" transform="translate(369.02,295.26) rotate(-28.9)" rx="9.88" ry="1.04"/>
<path fill="#fefced" d="
  M 138.06 296.51
  C 138.00 298.83 138.40 301.65 137.30 303.68
  Q 136.61 304.96 135.56 306.09
  Q 132.11 309.80 128.33 313.52
  A 1.10 1.09 -57.7 0 1 127.19 313.78
  Q 118.91 310.97 117.74 302.36
  Q 119.87 299.71 122.48 297.19
  Q 126.33 293.47 126.86 293.13
  Q 129.67 291.32 133.30 292.65
  Q 135.71 293.53 138.06 296.51
  Z"
/>
<path fill="#a7cad4" d="
  M 138.06 296.51
  L 143.21 303.05
  Q 143.53 303.46 143.40 303.96
  Q 142.96 305.63 141.73 306.96
  Q 136.32 312.85 130.93 318.58
  C 124.24 325.71 112.78 320.50 113.00 310.74
  Q 113.11 305.72 117.74 302.36
  Q 118.91 310.97 127.19 313.78
  A 1.10 1.09 -57.7 0 0 128.33 313.52
  Q 132.11 309.80 135.56 306.09
  Q 136.61 304.96 137.30 303.68
  C 138.40 301.65 138.00 298.83 138.06 296.51
  Z"
/>
<path fill="#fefced" d="
  M 421.31 296.82
  Q 422.05 297.11 421.36 298.37
  Q 420.93 299.14 420.79 299.71
  Q 419.02 306.86 415.94 314.66
  C 409.57 330.79 400.93 346.57 390.10 359.91
  Q 352.97 405.66 296.89 420.86
  C 237.26 437.04 170.02 421.82 124.28 379.07
  Q 88.37 345.50 74.76 297.03
  L 102.75 303.70
  A 0.36 0.36 0.0 0 1 103.00 304.18
  Q 98.68 315.89 105.34 324.97
  C 111.89 333.91 122.76 336.53 132.92 331.64
  A 0.33 0.33 0.0 0 1 133.40 331.92
  Q 133.74 342.86 142.57 349.51
  Q 152.53 357.01 165.26 351.47
  Q 165.92 351.19 166.00 351.90
  C 167.66 368.07 184.28 376.30 198.47 368.49
  Q 198.97 368.21 199.15 368.75
  C 199.61 370.15 199.91 371.79 200.53 373.12
  C 207.76 388.47 224.28 392.53 238.03 382.55
  Q 238.44 382.25 238.91 382.47
  Q 252.30 388.62 264.29 382.20
  C 271.77 378.18 276.89 370.26 277.33 361.66
  A 0.28 0.28 0.0 0 1 277.79 361.46
  Q 285.19 367.29 293.17 367.63
  C 306.67 368.20 317.67 358.68 319.47 345.17
  C 319.74 343.13 319.59 341.17 319.46 339.13
  Q 319.42 338.42 320.01 338.81
  C 337.61 350.17 360.62 337.83 359.90 316.64
  A 1.06 1.05 -16.0 0 1 360.44 315.67
  L 381.50 303.53
  Q 381.95 303.28 382.43 303.45
  Q 386.18 304.77 388.62 304.21
  Q 404.89 300.46 421.31 296.82
  Z"
/>
<path fill="#fefced" d="
  M 180.10 299.05
  Q 179.96 300.77 180.45 302.44
  C 181.87 307.30 180.97 310.61 177.27 314.27
  Q 170.22 321.21 160.28 332.02
  Q 159.77 332.58 159.02 332.49
  C 155.44 332.06 152.00 328.57 150.55 325.46
  C 149.73 323.71 150.01 321.48 149.39 319.41
  Q 158.55 309.99 167.79 300.54
  Q 172.95 295.27 180.10 299.05
  Z"
/>
<path fill="#a7cad4" d="
  M 300.90 324.89
  Q 311.20 332.61 307.66 345.46
  Q 305.96 351.63 299.46 354.36
  Q 292.98 357.08 286.38 351.84
  Q 266.65 336.19 246.24 321.00
  Q 244.43 319.66 241.99 319.78
  Q 237.16 320.01 236.05 325.68
  L 215.02 309.24
  Q 213.80 308.29 214.85 307.15
  C 217.09 304.69 224.51 295.32 228.43 298.05
  Q 230.86 299.75 233.47 301.70
  Q 257.32 319.54 277.24 334.38
  C 283.24 338.84 288.81 341.83 295.51 338.24
  Q 301.68 334.92 300.90 324.89
  Z"
/>
<path fill="#a7cad4" d="
  M 180.10 299.05
  Q 187.18 303.45 186.02 312.26
  Q 185.82 313.77 183.47 316.22
  Q 172.76 327.35 162.44 338.43
  C 158.50 342.65 151.36 342.08 147.40 337.73
  C 142.21 332.04 143.41 324.28 149.39 319.41
  C 150.01 321.48 149.73 323.71 150.55 325.46
  C 152.00 328.57 155.44 332.06 159.02 332.49
  Q 159.77 332.58 160.28 332.02
  Q 170.22 321.21 177.27 314.27
  C 180.97 310.61 181.87 307.30 180.45 302.44
  Q 179.96 300.77 180.10 299.05
  Z"
/>
<path fill="#fefced" d="
  M 206.78 321.66
  C 208.17 326.17 210.55 330.09 206.98 334.60
  Q 203.23 339.36 192.17 350.35
  Q 191.83 350.68 191.38 350.54
  Q 182.19 347.62 182.14 337.17
  Q 193.27 324.94 196.84 322.09
  Q 201.30 318.54 206.78 321.66
  Z"
/>
<path fill="#a7cad4" d="
  M 206.78 321.66
  Q 213.36 324.69 213.65 332.02
  C 213.78 335.17 212.76 337.68 210.59 339.85
  Q 203.01 347.42 195.55 355.55
  C 191.38 360.09 185.02 360.73 180.49 356.27
  Q 176.80 352.64 176.59 346.24
  Q 176.49 343.10 177.99 341.26
  Q 179.64 339.22 182.14 337.17
  Q 182.19 347.62 191.38 350.54
  Q 191.83 350.68 192.17 350.35
  Q 203.23 339.36 206.98 334.60
  C 210.55 330.09 208.17 326.17 206.78 321.66
  Z"
/>
<path fill="#a7cad4" d="
  M 257.99 344.89
  C 260.10 346.23 262.96 348.31 264.69 350.50
  C 267.43 353.99 266.59 361.36 264.88 364.76
  Q 259.71 375.03 246.88 372.27
  Q 246.04 372.08 246.35 371.28
  Q 248.79 365.03 248.17 358.03
  Q 258.22 357.25 257.99 344.89
  Z"
/>
<path fill="#fefced" d="
  M 229.86 350.21
  Q 230.03 351.60 231.05 354.50
  C 233.32 360.99 227.09 368.65 219.92 365.58
  C 216.98 364.32 214.95 361.36 214.40 358.07
  Q 214.17 356.72 213.75 355.47
  Q 216.04 352.67 216.86 351.86
  Q 222.39 346.44 229.86 350.21
  Z"
/>
<path fill="#a7cad4" d="
  M 229.86 350.21
  Q 237.40 354.96 236.29 363.32
  Q 235.72 367.57 233.56 370.35
  C 229.54 375.53 221.64 377.60 216.24 373.98
  Q 211.56 370.84 210.29 365.28
  Q 208.90 359.18 213.75 355.47
  Q 214.17 356.72 214.40 358.07
  C 214.95 361.36 216.98 364.32 219.92 365.58
  C 227.09 368.65 233.32 360.99 231.05 354.50
  Q 230.03 351.60 229.86 350.21
  Z"
/>
</svg>
